<?xml version="1.0" standalone="no"?>
<!DOCTYPE svg PUBLIC "-//W3C//DTD SVG 20010904//EN"
 "http://www.w3.org/TR/2001/REC-SVG-20010904/DTD/svg10.dtd">
<svg version="1.0" xmlns="http://www.w3.org/2000/svg"
 width="1920.000000pt" height="1371.000000pt" viewBox="0 0 1920.000000 1371.000000"
 preserveAspectRatio="xMidYMid meet">
<metadata>
Created by potrace 1.15, written by Peter Selinger 2001-2017
</metadata>
<g transform="translate(0.000000,1371.000000) scale(0.100000,-0.100000)"
fill="#000000" stroke="none">
<path d="M12276 10720 c-32 -39 -42 -101 -36 -220 11 -214 4 -563 -13 -675
-24 -150 -62 -315 -98 -427 -46 -140 -148 -340 -224 -438 -36 -47 -84 -112
-106 -145 -22 -33 -44 -60 -49 -60 -4 0 -12 -4 -17 -9 -5 -5 -3 -6 5 -2 18 11
15 -1 -10 -34 -11 -16 -25 -27 -30 -24 -5 3 -7 0 -6 -7 2 -7 -4 -13 -12 -14
-8 -1 -14 -6 -13 -12 1 -6 -36 -52 -84 -102 -47 -51 -83 -94 -80 -97 11 -11
202 140 292 231 286 286 389 528 475 1106 36 244 44 425 26 588 -17 148 -13
232 11 256 20 20 64 2 113 -47 46 -47 50 -36 18 49 -40 107 -111 143 -162 83z"/>
<path d="M10209 10618 c-7 -13 -57 -92 -111 -176 -54 -84 -126 -206 -160 -271
l-61 -118 21 -23 c11 -12 38 -57 58 -99 l38 -76 7 -205 c7 -215 13 -248 70
-378 l23 -52 -37 -38 c-39 -40 -77 -123 -77 -170 l-1 -27 -29 34 c-16 18 -39
52 -51 75 -20 38 -31 46 -113 80 -50 22 -117 48 -148 58 -56 19 -57 20 -78 81
-11 34 -24 90 -27 125 -3 37 -11 62 -17 62 -25 0 -94 -61 -137 -120 l-44 -61
-60 8 c-174 23 -455 -5 -685 -69 -239 -66 -553 -190 -533 -209 5 -4 35 -23 68
-41 33 -19 70 -49 83 -68 29 -44 51 -57 63 -39 6 11 11 11 21 1 19 -19 42 -14
53 10 17 40 78 65 173 72 64 5 90 11 99 23 10 13 10 19 0 26 -7 5 -1 6 18 2
43 -9 63 -31 49 -53 -8 -11 -9 -43 -5 -90 5 -50 3 -82 -6 -102 -12 -31 -6 -39
15 -18 8 8 12 8 12 1 0 -17 -29 -36 -46 -29 -8 3 -24 2 -34 -4 -13 -7 -31 -5
-62 5 l-43 15 24 -20 c14 -13 38 -20 62 -20 45 0 52 -15 12 -25 -24 -6 -26 -8
-10 -16 24 -14 47 -62 40 -87 -3 -13 -1 -22 6 -22 7 0 24 -12 38 -26 14 -14
29 -22 32 -17 4 4 35 40 69 79 62 72 73 93 50 96 -24 3 137 15 202 16 l65 0
-87 -18 c-127 -27 -180 -64 -233 -167 -16 -32 -31 -50 -38 -46 -8 5 -7 8 1 11
19 6 14 18 -8 18 -11 0 -20 -2 -20 -4 0 -2 14 -23 30 -48 30 -43 66 -62 53
-28 -5 14 -3 15 15 5 11 -6 31 -11 45 -11 20 0 23 4 19 30 -7 45 30 94 93 125
67 33 107 26 115 -20 l5 -29 27 33 c29 34 53 103 43 124 -4 6 1 3 9 -7 33 -41
18 -109 -40 -184 -28 -37 -29 -39 -5 -12 17 19 31 29 31 24 0 -21 -75 -87
-125 -110 -28 -13 -86 -29 -128 -36 -42 -6 -77 -14 -77 -18 0 -13 126 -100
145 -100 15 0 -7 18 -49 40 -25 13 -46 27 -46 32 0 14 77 -30 98 -57 11 -14
35 -32 54 -41 18 -8 48 -24 66 -36 l33 -20 39 38 c24 24 62 47 102 61 44 16
53 22 31 20 -42 -4 -43 9 -2 17 46 9 61 7 53 -5 -4 -8 0 -9 15 -4 11 3 28 2
36 -3 13 -7 8 -11 -23 -20 -21 -6 -57 -29 -80 -50 -23 -21 -45 -36 -49 -33 -3
3 -3 0 2 -7 5 -11 15 -6 39 17 18 17 40 31 49 31 9 0 17 4 17 10 0 22 83 32
157 20 65 -11 73 -15 84 -41 18 -45 5 -105 -37 -168 -40 -59 -112 -137 -123
-134 -3 1 -26 -4 -51 -12 -26 -8 -36 -14 -23 -14 12 -1 34 4 50 11 34 14 39
15 59 17 8 0 13 5 10 10 -9 14 18 29 39 21 18 -6 15 -10 -20 -27 -54 -28 -142
-53 -179 -52 -30 1 -30 1 -6 9 24 8 23 8 -7 9 -18 1 -33 -3 -33 -9 0 -17 123
-141 159 -160 44 -22 96 -77 104 -107 8 -33 0 -28 -19 12 -9 20 -19 33 -22 31
-3 -3 0 -11 5 -18 5 -7 18 -33 27 -57 19 -48 102 -170 121 -178 7 -2 29 3 49
11 l36 15 0 67 c0 52 -4 70 -17 80 -27 20 -29 18 -25 -26 5 -46 -8 -52 -32
-15 -22 34 -20 73 8 131 28 59 36 66 96 84 25 8 48 19 52 25 5 6 8 6 8 -2 0
-7 -11 -20 -25 -29 -14 -9 -25 -24 -25 -33 0 -14 -2 -14 -10 -1 -5 8 -10 10
-10 4 0 -16 21 -33 35 -27 8 2 23 0 34 -6 16 -9 27 -7 53 9 53 32 89 25 103
-20 4 -14 5 -22 1 -19 -4 3 -24 -11 -45 -32 -25 -26 -48 -39 -65 -39 -14 0
-26 -4 -26 -10 0 -13 26 -13 52 1 15 8 19 8 14 0 -7 -11 -77 -44 -81 -39 -16
19 -12 47 10 68 14 13 25 26 25 30 0 3 -15 14 -32 24 l-33 19 23 -25 c21 -24
22 -27 7 -42 -9 -9 -20 -16 -25 -16 -6 0 -5 -11 1 -26 7 -21 6 -31 -6 -44 -8
-9 -15 -25 -15 -36 0 -11 -5 -25 -12 -32 -6 -6 -9 -14 -7 -17 5 -5 11 6 43 73
22 48 15 4 -9 -58 -26 -66 -32 -106 -15 -95 6 3 10 15 10 26 0 10 6 19 13 19
6 1 23 23 36 51 34 73 85 104 171 104 54 0 73 -5 103 -25 20 -14 42 -35 48
-47 13 -24 42 -32 33 -9 -6 16 31 61 94 115 l48 40 28 -35 27 -35 -25 -30
c-27 -32 -56 -115 -56 -161 0 -31 -11 -36 -30 -13 -7 8 -19 15 -26 15 -12 0
-12 -5 1 -30 8 -16 15 -35 15 -43 0 -15 31 -47 45 -47 5 0 0 7 -11 15 -18 14
-17 15 11 8 17 -5 47 -7 67 -7 43 2 162 54 195 86 13 12 26 19 29 15 11 -10
-99 -118 -136 -133 -50 -21 -208 -15 -194 7 3 5 -2 6 -12 2 -13 -5 -15 -2 -10
18 3 13 3 19 0 12 -3 -7 -11 -10 -18 -7 -8 3 -16 -5 -20 -21 -8 -31 -70 -102
-98 -110 -17 -6 -18 -9 -5 -23 28 -33 29 -55 5 -74 -14 -11 -3 -8 27 7 36 19
62 25 92 23 22 -2 39 1 36 6 -10 15 41 -6 74 -31 31 -24 93 -107 93 -125 0 -4
5 -8 10 -8 6 0 10 9 10 19 0 21 53 71 75 71 28 0 37 -26 21 -63 -16 -40 -48
-61 -78 -54 -19 5 -20 2 -14 -33 3 -21 2 -41 -3 -44 -5 -3 -12 -23 -16 -43 -7
-41 -39 -83 -64 -84 -11 0 -12 -2 -4 -6 23 -9 82 -127 98 -195 12 -53 13 -72
3 -92 -6 -14 -15 -26 -20 -26 -16 0 -8 -29 11 -40 28 -14 39 -13 44 8 4 13 5
12 6 -5 1 -19 9 -22 59 -28 66 -8 68 -8 105 -6 22 1 31 8 40 31 6 17 15 30 19
30 5 0 1 -14 -7 -31 -9 -17 -15 -32 -13 -34 2 -2 37 -5 77 -7 l74 -3 8 29 c9
33 62 92 90 99 10 3 26 -1 35 -7 20 -15 13 -76 -12 -97 -14 -12 -14 -14 1 -19
34 -12 71 1 83 28 11 27 12 27 7 2 l-4 -25 187 -1 c209 0 219 -3 297 -75 44
-41 87 -59 139 -59 20 0 27 4 23 14 -9 24 11 81 38 106 21 19 29 22 43 13 15
-9 22 -5 40 24 24 36 56 53 100 53 l26 0 -32 33 c-40 41 -72 122 -67 170 3 33
-3 42 -59 97 l-61 61 68 -46 c37 -26 67 -52 67 -58 1 -7 7 5 15 26 7 22 23 49
34 61 12 12 21 26 21 30 0 4 -11 -5 -24 -21 l-24 -28 -38 28 c-124 87 -282
294 -308 404 -23 93 -29 143 -17 143 6 0 41 -18 78 -41 54 -33 235 -119 250
-119 3 0 1 9 -2 20 -4 11 -7 30 -9 43 -1 13 -5 28 -9 34 -4 6 -3 14 3 18 6 4
8 10 5 15 -3 5 3 18 15 30 31 31 25 38 -37 45 -72 7 -197 28 -373 61 -123 24
-139 29 -186 65 -28 22 -58 47 -67 57 -15 16 -14 17 26 14 105 -8 183 -25 235
-51 70 -35 199 -76 272 -86 88 -13 93 -13 133 -14 27 -1 36 -5 32 -13 -4 -7 5
2 20 20 14 17 34 33 43 33 9 1 -10 7 -43 13 l-60 12 160 12 c256 20 406 41
634 88 118 24 218 44 223 44 4 0 8 -11 8 -25 0 -30 -67 -108 -87 -101 -7 3
-13 1 -13 -5 0 -5 -25 -21 -55 -35 -30 -14 -55 -30 -55 -35 0 -13 12 -11 35 5
11 8 43 21 72 29 67 20 90 32 136 74 32 28 41 32 53 22 13 -10 17 -10 25 2 14
22 42 110 36 115 -2 3 -51 -5 -108 -16 -392 -80 -700 -88 -984 -24 -39 9 -108
15 -155 14 -47 0 -128 4 -180 10 -158 19 -457 105 -522 151 -17 13 -28 18 -24
11 22 -35 -143 66 -257 158 -93 74 -209 197 -231 245 -10 20 -20 53 -23 73
l-6 37 40 -51 c37 -46 140 -132 229 -192 63 -42 224 -124 236 -120 6 2 -27 30
-73 61 -46 31 -111 82 -145 114 -66 64 -129 163 -121 193 3 10 1 20 -3 22 -14
5 -34 170 -26 212 4 23 20 51 37 69 27 27 35 29 77 24 26 -3 55 -9 64 -12 15
-6 16 -3 6 31 -5 20 -21 54 -34 75 -28 45 -131 115 -191 132 -69 18 -50 27 46
21 163 -11 199 19 225 186 21 132 58 282 90 360 l25 61 -41 -32 c-40 -33 -71
-71 -118 -150 -37 -61 -178 -191 -204 -187 -44 6 -89 109 -88 205 1 96 83 226
200 318 55 43 65 60 30 50 -20 -5 -21 -4 -5 5 9 6 21 8 27 5 5 -3 21 2 36 12
21 13 57 18 173 23 127 4 151 8 184 27 100 59 255 51 612 -32 198 -47 195 -46
195 -40 0 9 -132 71 -250 118 -218 87 -466 136 -623 122 -214 -18 -424 -121
-606 -299 -90 -87 -231 -257 -231 -278 0 -5 -5 -8 -11 -6 -17 6 -57 111 -89
233 -64 249 -66 411 -6 582 62 179 92 327 80 396 -6 37 -64 117 -85 117 -4 0
-14 -10 -20 -22z m-724 -1347 c20 -21 61 -56 93 -77 31 -22 86 -65 121 -97 76
-68 169 -116 229 -119 47 -1 46 -1 31 -30 -9 -17 -9 -20 2 -15 135 56 144 58
243 63 55 3 137 1 181 -3 l80 -8 2 -146 c2 -123 6 -155 24 -200 58 -145 -14
-452 -138 -588 -43 -47 -55 -43 -28 9 9 17 15 31 15 32 -1 2 13 35 31 73 18
39 34 91 37 117 9 92 -17 234 -35 188 -10 -23 -63 -69 -106 -91 -97 -50 -180
52 -133 165 7 18 30 56 51 85 21 28 35 54 32 57 -5 6 -67 -73 -67 -85 0 -13
-67 -51 -90 -51 -54 0 -130 87 -130 150 0 29 9 43 54 86 67 62 110 84 169 84
74 0 145 -39 132 -72 -5 -12 1 -14 26 -10 40 6 115 -32 123 -62 13 -50 18 3
11 119 l-7 127 -182 -4 c-175 -3 -183 -4 -238 -31 -70 -34 -133 -94 -176 -167
-31 -52 -35 -36 -6 22 20 39 19 42 -28 56 -55 17 -78 38 -78 71 0 56 -21 101
-63 136 -38 31 -181 125 -191 125 -3 0 -2 -51 1 -112 5 -99 8 -115 27 -131 20
-17 20 -17 -14 -3 -45 18 -132 96 -171 153 l-32 46 18 33 c17 31 126 144 139
144 3 0 22 -18 41 -39z m-440 -63 c-33 -18 -63 -31 -67 -30 -5 1 -8 -2 -8 -8
0 -11 40 -34 47 -26 3 3 15 -1 27 -9 27 -20 33 -19 39 4 5 21 87 51 137 51 35
0 66 -23 54 -41 -4 -7 -7 -28 -5 -45 1 -18 -2 -35 -8 -39 -6 -3 -11 -1 -11 4
0 6 -5 11 -11 11 -5 0 -8 -4 -4 -9 3 -6 -3 -10 -12 -10 -10 0 -34 -4 -53 -9
-69 -17 -165 -15 -207 6 -48 25 -77 57 -70 76 8 21 169 104 202 105 6 0 -17
-14 -50 -31z m96 -200 c33 -11 69 -38 52 -38 -4 0 -1 -4 6 -9 12 -8 10 -12
-12 -22 -28 -13 -35 -33 -16 -44 11 -7 -12 -30 -96 -94 -36 -28 -64 -41 -100
-46 -27 -4 -66 -13 -85 -22 -59 -24 -145 -1 -173 47 l-17 29 30 -9 c24 -7 30
-5 30 6 0 13 4 12 30 -1 41 -21 51 -19 45 8 -13 49 75 117 149 117 62 0 61
-47 0 -81 -52 -30 -71 -32 -93 -10 -13 13 -21 16 -21 8 0 -36 41 -46 93 -22
84 39 138 93 151 148 5 22 2 29 -16 37 -35 13 3 12 43 -2z m466 -390 c7 -1 10
-5 8 -9 -3 -4 2 -10 11 -13 8 -3 12 -2 9 4 -13 21 12 9 46 -23 46 -43 56 -70
35 -102 -17 -26 -89 -68 -100 -58 -3 3 -14 -1 -23 -9 -35 -30 -97 -43 -209
-43 -98 0 -115 2 -134 20 -12 11 -25 20 -28 20 -10 0 -4 19 23 77 14 29 28 70
31 90 l6 37 77 6 c42 3 83 8 91 10 8 2 44 2 80 -1 36 -3 70 -6 77 -6z m340
-464 c13 -4 21 -10 18 -14 -3 -5 3 -6 13 -3 11 2 32 -9 56 -33 42 -40 43 -62
5 -113 -19 -25 -79 -69 -79 -57 0 3 14 27 30 53 36 56 36 60 8 90 -19 20 -19
23 -4 23 9 0 29 -12 43 -27 21 -23 24 -24 14 -6 -17 33 -50 53 -70 43 -16 -9
-120 -25 -153 -24 -9 0 -15 -3 -12 -8 3 -4 -13 -20 -35 -35 -40 -28 -81 -87
-81 -117 0 -29 -15 -17 -32 27 -9 23 -15 53 -14 67 3 31 74 84 99 74 9 -3 15
-9 13 -13 -3 -4 4 -7 15 -7 25 0 24 3 -8 20 l-28 14 55 26 c54 25 103 32 147
20z m695 -213 l33 -29 -3 -150 -2 -149 43 -59 c42 -57 77 -93 77 -80 0 3 -13
30 -30 59 -16 30 -34 76 -39 103 -8 42 -7 54 12 89 26 47 64 64 103 46 20 -9
24 -15 16 -23 -9 -9 -6 -18 13 -38 32 -33 66 -145 71 -234 2 -38 9 -75 15 -83
19 -22 7 -23 -78 -9 -102 18 -188 59 -334 160 -27 19 -38 35 -43 63 -15 94 0
143 69 229 31 37 33 44 25 80 -5 21 -10 42 -10 47 0 16 32 5 62 -22z m-596
-81 c36 -18 66 -41 77 -59 16 -27 16 -34 4 -64 -16 -38 -70 -103 -99 -118 -16
-9 -14 -1 12 50 36 72 37 97 8 128 -26 28 -56 29 -139 4 -74 -22 -94 -23 -131
-9 -36 13 -35 19 5 43 111 66 170 72 263 25z m680 -835 c27 -95 22 -138 -22
-193 -21 -26 -47 -55 -58 -64 -21 -18 -86 -25 -86 -10 0 5 22 31 50 60 56 58
82 129 84 224 1 68 8 64 32 -17z"/>
<path d="M9423 8602 c14 -3 5 -10 -31 -27 -33 -15 -64 -41 -90 -74 -23 -29
-42 -45 -45 -38 -2 6 -4 -3 -3 -22 1 -26 7 -36 25 -43 19 -6 22 -5 17 7 -6 17
5 20 20 6 5 -5 19 -12 30 -15 18 -6 22 -2 22 19 0 14 8 35 18 47 52 58 184 66
184 11 0 -31 -129 -69 -145 -43 -3 6 -11 10 -17 10 -6 0 -3 -9 7 -20 24 -27
49 -25 121 9 62 29 100 66 110 108 4 12 11 23 16 23 17 0 1 -71 -22 -102 -11
-15 -20 -31 -20 -35 0 -4 6 -1 13 8 7 9 22 19 34 23 34 11 52 33 46 56 -5 19
-6 20 -19 3 -15 -20 -19 -6 -5 16 10 15 -9 41 -29 41 -6 0 -8 5 -4 12 4 6 3 8
-4 4 -6 -3 -32 -2 -59 3 -47 10 -206 22 -170 13z"/>
<path d="M11373 9129 c-61 -7 -201 -52 -240 -77 -6 -4 44 -7 112 -6 85 1 122
-2 119 -10 -3 -6 -26 -25 -52 -43 -48 -33 -185 -156 -167 -151 6 2 44 20 85
40 41 20 88 40 104 44 l30 7 -21 -29 c-61 -86 -88 -178 -77 -263 l7 -56 17 60
c47 173 157 303 325 388 61 30 148 57 189 57 55 1 6 17 -91 29 -118 16 -249
20 -340 10z"/>
<path d="M15677 8983 c19 -14 25 -240 7 -274 -8 -16 -14 -35 -14 -43 0 -27 66
12 87 51 14 27 15 37 6 53 -10 16 -10 21 3 28 13 7 13 15 3 56 -11 45 -68 127
-93 134 -7 2 -7 0 1 -5z"/>
<path d="M8216 8881 c-8 -12 3 -100 15 -122 5 -10 25 -27 45 -40 35 -21 37
-22 104 -5 37 9 75 16 84 16 18 0 22 15 6 25 -11 7 -33 82 -32 107 1 16 -2 17
-26 4 -15 -8 -38 -26 -51 -40 -25 -27 -51 -34 -51 -15 0 5 4 8 9 4 5 -3 12 -1
15 4 3 4 -12 11 -33 15 -25 4 -47 15 -59 31 -11 14 -23 22 -26 16z"/>
<path d="M7716 8825 c-96 -64 -226 -182 -311 -282 -148 -173 -197 -266 -407
-773 -161 -386 -252 -622 -313 -804 -50 -151 -97 -266 -394 -974 -125 -298
-150 -366 -185 -508 -54 -213 -60 -372 -21 -589 13 -77 29 -196 34 -265 19
-235 59 -394 128 -520 20 -36 55 -101 77 -145 33 -64 63 -102 151 -191 60 -61
143 -152 184 -202 50 -62 97 -108 147 -142 l74 -51 47 33 c27 18 78 62 114 98
36 36 78 73 92 83 15 10 53 53 86 96 105 137 140 146 285 72 73 -38 110 -51
142 -51 40 0 44 3 66 43 17 31 38 50 81 73 33 17 97 68 145 116 103 100 121
114 272 203 304 180 529 348 646 481 82 92 121 156 184 299 64 145 103 223
145 290 17 28 53 98 78 156 l47 106 -2 158 c-2 131 -5 158 -18 162 -79 24
-157 89 -194 162 -23 43 -57 181 -49 193 3 6 6 41 7 78 1 59 5 74 31 111 50
72 125 126 192 139 32 6 68 16 81 23 18 8 28 8 42 -1 24 -15 161 -16 211 -2
19 6 46 21 58 34 l22 24 -20 38 c-25 46 -27 91 -6 114 13 15 9 25 -42 103 -57
86 -58 86 -78 67 -11 -10 -42 -24 -70 -31 -27 -7 -59 -20 -70 -30 -36 -30 -63
-39 -117 -39 -61 0 -131 28 -147 59 -11 20 -9 21 46 20 32 -1 75 2 95 6 l37 7
-39 49 c-25 32 -43 68 -51 104 -12 55 -22 67 -32 41 -3 -8 -14 -13 -24 -12
-10 2 -12 1 -5 -1 6 -3 12 -7 12 -10 0 -2 -27 -44 -59 -91 -60 -87 -140 -175
-128 -139 4 10 16 65 27 122 19 95 20 106 6 134 -9 16 -20 32 -25 35 -4 3 -7
16 -6 28 1 13 0 15 -2 5 -3 -10 -8 -17 -11 -15 -4 2 -38 19 -76 37 -64 30 -73
32 -108 22 -41 -13 -110 -61 -174 -123 -30 -29 -43 -36 -48 -26 -3 7 -3 3 -1
-9 3 -12 1 -24 -5 -28 -19 -12 -39 -63 -70 -177 -36 -130 -61 -178 -123 -235
-68 -63 -114 -88 -206 -114 -64 -18 -94 -33 -129 -64 -28 -24 -43 -33 -39 -22
5 13 3 17 -5 15 -7 -3 -18 -21 -23 -42 l-11 -37 -24 37 c-62 95 -163 124 -247
71 -84 -53 -114 -88 -169 -200 -30 -60 -63 -122 -75 -138 -14 -20 -63 -50
-155 -95 -128 -62 -137 -69 -169 -119 -36 -56 -49 -98 -60 -202 -8 -73 1 -94
55 -128 96 -60 164 -57 260 15 29 22 54 39 55 37 1 -1 0 -20 -3 -42 -3 -28 -7
-35 -11 -22 -6 17 -8 16 -19 -8 -11 -24 -11 -27 3 -22 8 4 15 2 15 -3 0 -6
-10 -10 -23 -10 -12 0 -32 -7 -44 -15 -39 -28 -116 -37 -197 -25 -105 16 -146
3 -186 -56 -58 -83 -125 -254 -100 -254 22 0 20 -61 -4 -119 -46 -113 -141
-229 -224 -271 -141 -73 -275 -11 -307 140 l-7 35 39 -37 c45 -44 113 -62 191
-49 145 23 262 189 262 373 0 74 -2 76 -94 128 -70 40 -97 40 -188 3 -75 -30
-88 -47 -133 -165 -10 -27 -22 -48 -27 -48 -6 0 -8 33 -7 77 l4 77 59 51 c33
27 68 67 79 88 23 44 35 165 19 192 -14 26 30 150 76 218 57 83 74 101 120
132 41 27 42 28 42 86 0 63 10 75 28 34 19 -42 50 -49 112 -26 120 45 141 73
175 221 9 41 21 95 27 120 23 93 22 134 -5 166 l-25 28 40 56 c39 56 39 57 27
103 -6 26 -15 49 -18 52 -17 10 33 247 76 355 40 103 101 155 224 191 21 7 36
15 34 20 -3 4 3 5 12 3 28 -8 107 78 101 109 -4 22 -2 23 26 17 21 -4 40 -1
61 12 19 12 50 18 86 18 53 0 59 -2 92 -39 42 -46 67 -92 67 -121 0 -32 18
-23 25 13 4 17 18 64 30 102 13 39 25 88 27 110 l3 40 -61 -1 c-68 -1 -112
-15 -163 -52 -33 -25 -33 -24 10 29 62 76 89 123 92 157 1 17 5 28 9 26 6 -4
48 123 48 149 0 26 -40 52 -79 51 -94 -3 -163 -81 -248 -279 -40 -95 -46 -118
-44 -172 1 -34 -3 -64 -9 -68 -15 -9 -12 -28 3 -19 7 4 9 3 4 -2 -5 -5 -12 -9
-15 -9 -15 0 -32 -17 -27 -26 3 -5 -2 -6 -11 -2 -13 5 -15 3 -9 -7 5 -9 4 -11
-3 -6 -7 4 -22 -2 -34 -14 -26 -24 -101 -60 -138 -66 l-25 -3 25 10 c14 6 40
17 58 25 47 20 139 90 159 120 14 22 15 36 7 94 -5 38 -6 66 -3 64 4 -2 12 29
18 68 17 109 27 138 68 199 88 131 152 199 189 200 l29 1 -25 8 c-19 6 -21 8
-6 9 11 1 34 -10 52 -24 21 -16 35 -21 39 -14 7 10 31 7 71 -8 13 -5 16 -3 11
10 -4 10 -2 16 4 14 6 -1 16 7 22 18 7 11 20 32 30 47 9 14 18 46 18 70 l2 43
7 -35 7 -35 2 31 c0 17 -6 48 -14 67 -19 47 -19 78 2 143 16 51 36 67 27 21
-2 -12 -7 -36 -10 -54 -8 -41 37 -120 73 -129 41 -11 92 3 148 40 94 63 96 63
162 1 53 -50 83 -70 68 -45 -3 6 -1 10 5 10 7 0 10 -6 7 -14 -3 -8 2 -21 11
-28 15 -13 24 -12 71 12 l53 26 -50 45 c-28 25 -70 53 -94 61 -113 39 -144 46
-134 29 3 -4 -15 -23 -40 -40 -35 -26 -50 -31 -74 -26 -35 8 -40 -2 -7 -14 22
-9 22 -9 -6 -22 -63 -29 -56 53 9 111 l35 30 -38 16 c-88 36 -123 59 -218 143
-83 75 -102 87 -117 78 -18 -12 -74 2 -113 29 -19 14 -19 14 2 14 12 0 33 5
47 12 l26 11 -53 56 c-28 31 -54 57 -57 58 -3 1 -41 -22 -84 -52z m1191 -2026
c-52 -125 -96 -181 -153 -195 -47 -12 -152 1 -181 22 -43 33 -38 41 28 47 79
7 165 49 255 125 38 33 70 58 71 57 2 -1 -7 -26 -20 -56z m8 -570 c-33 -83
-69 -142 -104 -172 -34 -29 -109 -43 -171 -32 -38 6 -100 47 -100 65 0 5 27 9
60 9 38 0 77 7 106 20 51 23 165 104 203 145 14 14 26 26 27 26 1 0 -8 -27
-21 -61z m-589 -176 c-31 -80 -82 -156 -118 -177 -38 -23 -126 -31 -171 -17
-39 13 -87 47 -87 62 0 5 28 9 63 9 45 0 77 7 115 25 55 26 150 94 191 139 14
14 26 24 28 23 1 -2 -8 -31 -21 -64z m-743 -165 c36 -19 148 -16 181 5 38 25
42 16 10 -22 -107 -127 -264 -65 -263 104 0 27 2 26 25 -23 14 -28 35 -57 47
-64z m1254 -299 c-35 -79 -69 -115 -121 -128 -63 -16 -128 -14 -154 5 -36 25
-26 34 36 34 74 0 146 34 210 100 26 26 48 46 50 45 2 -1 -8 -27 -21 -56z
m-543 -157 c-27 -53 -61 -105 -76 -116 -54 -39 -183 -38 -236 1 -43 32 -37 40
35 45 95 7 202 66 293 161 41 43 35 10 -16 -91z m-901 -59 c8 -46 63 -140 98
-165 18 -13 43 -19 85 -20 101 -1 127 13 196 106 33 44 57 70 53 56 -41 -135
-112 -192 -270 -216 -53 -8 -107 -19 -118 -25 -12 -6 -80 -50 -150 -98 -164
-111 -183 -120 -238 -121 -57 0 -94 26 -109 78 -19 70 -14 77 31 40 39 -32 45
-33 126 -33 l85 0 45 50 c55 61 111 146 130 199 8 23 13 70 13 106 -3 78 -2
80 9 80 5 0 11 -17 14 -37z m815 -445 c-39 -83 -71 -115 -129 -127 -78 -17
-126 -14 -149 9 -30 30 -25 35 35 32 71 -5 144 29 213 97 26 26 49 46 51 45 1
-2 -8 -27 -21 -56z m-448 -99 c-42 -113 -68 -137 -171 -158 -58 -12 -82 -8
-111 17 -28 23 -22 27 41 28 45 1 70 8 106 28 59 35 111 81 132 117 25 42 26
29 3 -32z m-480 -299 c-29 -73 -63 -130 -100 -165 -30 -29 -35 -30 -120 -30
-74 0 -93 3 -117 21 -48 36 -41 49 26 50 76 0 161 41 257 122 38 33 70 58 72
57 1 -1 -7 -26 -18 -55z"/>
<path d="M12945 8630 c-364 -73 -536 -115 -670 -162 -85 -30 -328 -131 -472
-195 -121 -54 -123 -56 -123 -88 0 -89 60 -185 115 -185 12 0 28 -7 35 -15 6
-8 32 -26 56 -40 41 -24 55 -26 213 -32 317 -11 445 31 638 211 42 39 109 110
149 158 92 111 277 389 257 387 -4 0 -93 -18 -198 -39z m29 -117 c-9 -37 -14
-47 -97 -188 -103 -173 -146 -206 -251 -191 -70 11 -80 23 -65 79 13 45 12 48
-15 76 -16 16 -26 33 -23 38 4 5 34 24 69 41 35 18 92 54 128 81 50 37 83 53
145 69 112 28 117 28 109 -5z m-759 -281 c76 -37 84 -69 26 -107 -21 -15 -49
-46 -62 -71 -21 -39 -28 -44 -57 -44 -43 0 -183 36 -244 62 -54 23 -65 45 -44
85 27 52 59 73 127 83 133 20 203 18 254 -8z"/>
<path d="M8310 8607 c14 -8 64 -36 111 -63 47 -27 109 -60 137 -74 28 -14 52
-31 52 -39 0 -8 3 -11 6 -8 12 12 144 -71 144 -90 0 -19 -3 -17 -67 28 -63 44
-115 69 -144 69 -11 0 -19 6 -19 14 0 8 -15 23 -32 34 -35 21 -168 55 -168 43
0 -4 30 -13 67 -20 68 -12 123 -42 123 -65 0 -8 17 -16 39 -20 68 -11 208
-113 278 -203 34 -43 77 -94 97 -112 36 -35 36 -35 36 -10 0 32 -22 63 -82
118 -27 24 -65 67 -85 94 -41 56 -132 118 -308 212 -60 32 -126 69 -145 82
-19 12 -41 23 -50 23 -9 0 -4 -6 10 -13z"/>
<path d="M16679 8331 c-9 -30 -9 -47 0 -72 6 -18 8 -49 5 -68 -7 -40 -45 -113
-78 -150 l-21 -24 21 11 c11 6 26 17 32 25 6 7 33 23 59 36 41 19 52 31 76 81
44 95 35 160 -28 186 -49 20 -53 18 -66 -25z"/>
<path d="M9444 8235 c-94 -14 -160 -49 -204 -108 -19 -25 -36 -44 -39 -42 -2
3 1 11 7 18 7 8 8 18 4 22 -4 5 -2 6 3 2 6 -3 15 6 22 19 17 36 -2 29 -26 -10
-19 -30 -20 -39 -10 -85 12 -59 30 -81 65 -81 13 0 27 -1 31 -2 5 -2 7 13 5
33 -3 27 3 44 24 68 62 74 184 96 184 34 0 -19 -47 -61 -88 -79 -30 -13 -36
-13 -58 1 -19 12 -24 13 -24 2 0 -21 41 -36 70 -25 53 20 129 90 156 143 14
30 24 62 22 72 -5 25 -57 31 -144 18z"/>
<path d="M8286 8185 c-28 -8 -53 -12 -58 -9 -4 3 -8 1 -8 -4 0 -5 -14 -16 -32
-23 -29 -12 -61 -42 -108 -102 l-17 -22 66 0 c58 0 71 4 100 28 59 49 142 29
106 -27 -9 -14 -14 -29 -11 -34 3 -6 -11 -25 -33 -45 -29 -26 -39 -44 -44 -76
-4 -34 -2 -41 11 -41 36 1 106 83 136 159 9 24 23 50 31 58 10 9 15 35 15 73
0 48 -4 61 -19 70 -26 13 -74 11 -135 -5z"/>
<path d="M8735 8193 c-11 -2 -31 -6 -45 -10 -23 -5 -24 -6 -5 -13 28 -12 37
-12 30 0 -3 6 -1 10 6 10 6 0 9 -8 6 -20 -3 -11 -1 -18 4 -14 5 3 9 1 9 -5 0
-5 -23 -17 -51 -26 -92 -31 -151 -104 -179 -223 -15 -64 -7 -100 24 -112 31
-12 231 32 266 59 14 10 37 46 51 81 15 34 31 65 36 69 15 9 45 71 34 71 -5 0
-11 8 -13 18 -7 24 -149 119 -173 115z m75 -189 c9 -23 -1 -64 -16 -64 -3 0
-2 6 2 13 5 6 -9 -3 -29 -20 -38 -33 -83 -43 -103 -23 -6 6 -10 4 -10 -8 0
-20 48 -27 78 -11 16 8 19 8 13 -1 -4 -7 -28 -21 -52 -32 -50 -22 -73 -13 -73
29 0 95 161 195 190 117z"/>
<path d="M11493 8062 c-33 -27 -80 -61 -106 -78 -25 -16 -46 -32 -47 -37 0 -4
9 -2 20 5 26 17 40 2 47 -49 4 -28 1 -44 -11 -55 -9 -9 -16 -21 -16 -25 0 -18
134 -57 193 -58 78 0 90 15 84 107 -3 53 -13 85 -47 152 -23 47 -45 86 -49 86
-4 0 -35 -22 -68 -48z"/>
<path d="M8960 7950 c-17 -34 -21 -54 -16 -87 3 -25 2 -43 -4 -43 -5 0 -7 7
-4 15 9 22 -3 19 -15 -4 -10 -18 -6 -19 79 -18 50 1 89 4 87 7 -18 37 -72 131
-86 149 l-19 25 -22 -44z"/>
<path d="M11774 7926 c-10 -26 15 -83 50 -114 72 -63 209 -123 384 -167 121
-31 93 -46 -108 -55 l-145 -6 130 -2 c146 -2 270 20 351 61 l47 24 -119 6
c-131 7 -233 29 -351 78 -76 32 -172 86 -201 115 -18 19 -2 40 42 53 l31 10
-35 -1 c-19 0 -43 3 -52 7 -12 5 -20 2 -24 -9z"/>
<path d="M8998 7713 c18 -35 21 -101 5 -122 -18 -26 -19 -27 51 9 32 17 72 30
87 30 24 0 29 -4 29 -25 0 -14 -16 -45 -35 -71 -19 -25 -35 -50 -35 -55 0 -6
-8 -8 -17 -5 -66 19 -70 19 -93 -18 -21 -34 -23 -74 -9 -152 2 -7 20 -10 48
-7 25 2 73 -4 107 -13 59 -16 62 -15 102 5 45 23 168 161 179 200 5 21 -2 32
-38 64 -65 58 -181 134 -239 157 -28 11 -73 20 -101 20 -44 0 -49 -2 -41 -17z"/>
<path d="M8638 7671 c-62 -31 -92 -60 -125 -122 -17 -32 -28 -59 -23 -59 10 0
35 39 45 70 11 35 45 67 55 50 5 -9 9 -9 14 -1 4 6 15 11 24 11 13 0 11 -4 -6
-16 -13 -9 -21 -22 -18 -30 3 -8 -6 -30 -19 -50 -30 -45 -43 -90 -48 -169 -1
-33 -6 -65 -9 -70 -3 -6 0 -19 8 -30 28 -38 131 -16 200 42 34 28 118 153 137
203 9 25 17 69 17 98 0 46 -3 54 -24 61 -41 16 -174 -29 -229 -77 -9 -8 -20
-12 -23 -9 -4 3 10 16 30 28 37 22 47 33 21 23 -8 -4 -15 -1 -15 5 0 6 5 11
12 11 6 0 9 2 6 5 -2 3 -19 -2 -37 -11 -41 -20 -52 -12 -16 12 18 12 48 18 86
18 37 1 60 6 64 14 7 19 -84 14 -127 -7z m166 -147 c18 -18 20 -30 6 -39 -6
-4 -7 -12 -4 -18 4 -7 4 -9 -1 -5 -4 4 -16 -3 -26 -16 -24 -30 -24 -43 -1 -25
9 7 1 -4 -18 -25 -19 -21 -47 -44 -62 -52 -23 -12 -29 -12 -42 2 -32 32 -10
109 44 158 43 39 79 46 104 20z"/>
<path d="M8094 7497 c-28 -29 -54 -67 -54 -81 0 -3 9 -3 20 -1 25 5 25 4 -1
-47 -13 -25 -23 -69 -26 -114 -4 -47 -10 -74 -18 -74 -9 0 -13 37 -5 48 2 1 4
28 5 60 3 71 14 109 26 90 6 -9 9 -9 9 -1 0 26 -20 22 -35 -8 -26 -49 -53
-141 -47 -162 8 -32 91 -77 142 -77 85 0 208 113 226 210 4 19 11 41 17 47 6
8 5 35 -4 78 l-13 65 -35 0 c-37 0 -157 -54 -193 -87 -25 -22 -51 -26 -44 -6
3 8 6 17 6 19 0 2 5 4 11 4 5 0 7 -5 3 -11 -4 -8 -1 -8 14 0 13 7 19 17 15 27
-3 8 3 24 12 34 30 33 2 22 -31 -13z m177 -87 c28 -16 23 -41 -18 -89 -30 -36
-41 -42 -65 -39 -25 4 -27 3 -14 -10 12 -13 18 -12 46 2 43 21 23 -4 -28 -36
-34 -21 -35 -21 -48 -3 -28 38 -11 97 43 146 23 22 41 33 61 38 2 1 12 -4 23
-9z"/>
<path d="M12542 7319 c-53 -15 -150 -23 -249 -20 -12 1 -28 8 -37 16 -14 14
-15 5 -10 -88 4 -79 1 -111 -11 -140 -16 -39 -10 -46 26 -27 19 11 26 35 12
43 -5 2 -2 2 4 1 14 -4 28 39 18 56 -7 11 22 26 32 16 4 -3 -4 -24 -16 -47
-13 -22 -20 -43 -17 -47 9 -9 397 88 391 98 -2 4 -24 4 -47 -1 -24 -4 -62 -8
-86 -9 l-43 0 15 28 c8 15 36 48 62 72 26 24 42 46 36 48 -7 2 -10 8 -6 13 7
11 3 11 -74 -12z"/>
<path d="M7385 7278 c-33 -12 -85 -56 -85 -72 0 -6 -14 -40 -30 -74 -36 -76
-70 -204 -70 -261 0 -89 53 -147 122 -134 35 7 109 71 149 130 40 57 89 192
89 243 0 45 -24 123 -49 157 -18 25 -72 30 -126 11z"/>
<path d="M7890 7263 c0 -6 -21 -27 -46 -48 -55 -46 -113 -56 -164 -30 -27 14
-34 15 -42 3 -8 -10 -9 -9 -5 4 3 9 -1 22 -9 28 -12 11 -14 4 -14 -43 0 -47 3
-57 25 -71 13 -9 35 -16 49 -16 39 0 38 -12 -10 -65 -56 -63 -136 -223 -142
-286 -7 -74 47 -214 94 -246 16 -10 33 -13 56 -8 44 10 98 37 93 46 -3 3 3 6
12 5 11 -1 30 22 54 64 54 94 56 106 20 113 -25 5 -36 0 -66 -30 -24 -24 -41
-34 -55 -30 -11 3 -18 1 -14 -4 9 -15 46 -10 69 9 12 9 4 0 -17 -20 -20 -21
-46 -38 -57 -38 -45 0 -35 104 13 149 l24 23 -31 50 c-24 38 -32 64 -34 104
-1 34 3 57 11 61 7 5 18 22 25 39 7 18 26 44 42 60 23 22 26 30 17 43 -10 13
-10 14 2 4 17 -15 30 -17 30 -4 0 5 19 37 42 70 23 33 39 64 35 68 -4 3 -7 2
-7 -4z"/>
<path d="M15785 7046 c-22 -7 -67 -29 -100 -50 -76 -46 -155 -70 -203 -61 -21
3 -82 19 -137 35 -165 48 -230 56 -295 37 -76 -22 -115 -64 -261 -280 -345
-510 -477 -656 -770 -846 -64 -42 -125 -81 -135 -88 -46 -30 229 103 298 145
166 98 236 174 397 429 271 428 375 565 455 598 52 22 108 19 242 -14 218 -54
252 -52 409 27 110 55 171 62 308 38 52 -10 110 -16 128 -14 31 3 27 5 -36 27
-86 29 -239 38 -300 17z"/>
<path d="M8173 7026 c-24 -20 -25 -26 -14 -40 15 -18 1 -22 -16 -5 -8 8 -14 6
-22 -9 -9 -17 -8 -22 11 -28 19 -6 19 -7 5 -16 -10 -5 -17 -16 -17 -24 0 -17
-59 -126 -74 -136 -7 -5 -7 -8 -1 -8 6 0 10 -30 10 -70 0 -48 -4 -70 -12 -70
-7 0 -10 7 -7 18 5 13 4 14 -4 3 -17 -23 -32 -2 -33 47 -1 44 -1 45 -11 19
-15 -41 2 -71 59 -107 69 -44 120 -42 175 8 23 20 59 64 80 96 45 70 94 212
78 230 -5 7 -11 22 -13 34 -2 12 -7 25 -12 29 -4 5 -5 2 -1 -4 5 -10 -3 -13
-31 -13 -40 0 -105 -26 -152 -60 -16 -10 -31 -17 -35 -13 -3 4 6 15 21 26 16
10 20 17 11 13 -10 -3 -18 -2 -18 3 0 5 12 12 28 17 20 5 23 8 9 11 -9 3 -14
9 -11 15 4 7 2 8 -4 4 -22 -13 -12 5 16 29 15 13 24 25 20 25 -4 0 -19 -11
-35 -24z m123 -181 c16 -24 15 -26 -21 -71 -35 -42 -41 -46 -72 -41 -29 5 -33
4 -23 -8 16 -19 35 -19 68 2 l27 17 -23 -25 c-35 -40 -68 -55 -87 -39 -36 30
0 135 58 170 42 26 53 25 73 -5z"/>
<path d="M7337 6674 c-26 -25 -44 -50 -41 -55 3 -5 0 -8 -6 -7 -12 3 -50 -55
-97 -152 -25 -50 -28 -67 -30 -182 -3 -126 -3 -126 23 -147 19 -15 41 -21 76
-21 81 0 146 38 180 105 23 44 48 176 55 282 6 86 4 94 -21 136 -24 42 -69 87
-86 87 -4 0 -28 -21 -53 -46z"/>
<path d="M12219 6699 c19 -28 24 -203 7 -244 -8 -19 -13 -35 -11 -35 18 0 55
26 55 39 0 9 5 23 11 31 8 12 9 11 4 -6 -4 -17 4 -31 39 -61 41 -36 53 -41
128 -51 168 -24 168 -20 10 63 -79 41 -149 75 -157 75 -20 0 -28 19 -15 35 17
21 -7 89 -48 133 -19 20 -29 30 -23 21z"/>
<path d="M9896 6481 c-10 -10 -23 -56 -31 -109 -18 -111 -41 -173 -101 -277
-83 -143 -84 -144 -84 -218 l0 -69 30 56 c16 31 50 83 75 116 75 98 101 180
115 368 7 101 12 126 27 138 15 11 16 13 2 14 -9 0 -23 -8 -33 -19z"/>
<path d="M12290 6045 c-36 -7 -195 -56 -355 -108 -159 -52 -342 -107 -406
-121 -127 -28 -276 -35 -297 -14 -17 17 -15 -4 4 -30 34 -48 104 -64 189 -41
43 11 292 90 618 196 213 69 347 102 413 103 47 0 100 -17 188 -60 l61 -30
-33 29 c-18 15 -57 41 -85 57 -45 24 -65 28 -142 30 -49 2 -119 -3 -155 -11z"/>
<path d="M6839 5945 c-57 -15 -131 -64 -145 -96 -29 -63 -66 -167 -74 -211
-12 -59 -1 -90 47 -140 50 -51 84 -64 126 -47 48 20 167 97 167 110 0 5 -5 7
-12 3 -7 -4 -8 -3 -4 5 4 6 11 9 16 6 5 -3 16 5 24 17 20 31 76 200 76 230 0
39 -41 91 -90 116 -50 25 -65 26 -131 7z"/>
<path d="M9666 5448 c-8 -75 -56 -314 -91 -453 -30 -123 -100 -266 -192 -395
-83 -116 -348 -385 -493 -499 -138 -110 -138 -110 -43 -61 89 45 168 109 331
265 56 54 130 119 165 146 177 137 233 242 307 573 28 125 31 154 31 308 0 94
-2 172 -4 175 -3 2 -7 -25 -11 -59z"/>
<path d="M7793 3481 c-166 -86 -264 -157 -413 -297 -128 -122 -135 -127 -230
-161 l-65 -23 90 6 c143 9 159 19 397 247 85 81 197 175 260 220 61 42 107 77
102 77 -5 0 -68 -31 -141 -69z"/>
<path d="M6080 2856 c-102 -36 -192 -80 -318 -154 -142 -84 -245 -130 -309
-138 -26 -4 -55 -11 -63 -16 -22 -13 71 0 162 23 94 23 211 74 337 146 53 31
101 59 106 64 6 4 49 28 95 53 93 50 90 57 -10 22z"/>
<path d="M4489 2415 c-260 -68 -433 -156 -585 -295 -128 -117 -258 -197 -429
-265 -38 -15 -72 -30 -75 -33 -3 -2 33 -2 80 1 163 12 371 92 429 166 15 20
47 66 69 102 48 76 99 120 191 164 70 35 313 133 421 171 93 33 45 27 -101
-11z"/>
<path d="M2032 1975 c-49 -22 -78 -59 -143 -187 -84 -164 -128 -195 -206 -147
l-35 22 16 -31 c23 -44 68 -65 124 -59 80 9 119 54 154 179 26 91 61 164 101
206 35 36 35 37 -11 17z"/>
<path d="M1225 1855 c-88 -29 -190 -59 -228 -65 -38 -7 -66 -14 -64 -17 5 -4
133 12 182 23 25 5 -23 -17 -95 -45 -72 -27 -185 -28 -270 -2 l-61 19 3 -31
c4 -46 58 -60 208 -54 99 4 130 9 223 41 139 46 377 167 350 177 -40 16 -95 6
-248 -46z"/>
<path d="M920 1303 c0 -6 6 -16 13 -22 9 -7 14 -37 15 -88 1 -43 4 -90 8 -105
3 -17 -2 -45 -15 -74 -12 -26 -19 -49 -17 -51 2 -2 20 4 39 13 44 21 75 77 57
100 -10 11 -10 17 0 29 17 21 6 69 -30 125 -33 51 -70 90 -70 73z"/>
</g>
</svg>
